<?xml version="1.0" encoding="UTF-8" standalone="no"?>
<!-- Created with Inkscape (http://www.inkscape.org/) -->

<svg
   xmlns:dc="http://purl.org/dc/elements/1.1/"
   xmlns:cc="http://creativecommons.org/ns#"
   xmlns:rdf="http://www.w3.org/1999/02/22-rdf-syntax-ns#"
   xmlns:svg="http://www.w3.org/2000/svg"
   xmlns="http://www.w3.org/2000/svg"
   xmlns:xlink="http://www.w3.org/1999/xlink"
   xmlns:sodipodi="http://sodipodi.sourceforge.net/DTD/sodipodi-0.dtd"
   xmlns:inkscape="http://www.inkscape.org/namespaces/inkscape"
   width="800px"
   height="600px"
   id="svg2985"
   version="1.1"
   inkscape:version="0.48.2 r9819"
   sodipodi:docname="frog.svg"
   inkscape:export-filename="/Users/luca/Desktop/frog.png"
   inkscape:export-xdpi="90"
   inkscape:export-ydpi="90">
  <defs
     id="defs2987">
    <linearGradient
       id="linearGradient6365">
      <stop
         style="stop-color:#ffffff;stop-opacity:1;"
         offset="0"
         id="stop6367" />
      <stop
         id="stop6375"
         offset="0.5"
         style="stop-color:#f7f7f7;stop-opacity:1;" />
      <stop
         style="stop-color:#f0f0f0;stop-opacity:1;"
         offset="1"
         id="stop6369" />
    </linearGradient>
    <linearGradient
       id="linearGradient6344">
      <stop
         style="stop-color:#ffffba;stop-opacity:1;"
         offset="0"
         id="stop6346" />
      <stop
         style="stop-color:#ffff78;stop-opacity:1;"
         offset="1"
         id="stop6348" />
    </linearGradient>
    <linearGradient
       id="linearGradient6332">
      <stop
         id="stop6334"
         offset="0"
         style="stop-color:#00f054;stop-opacity:1;" />
      <stop
         style="stop-color:#07e956;stop-opacity:1;"
         offset="0.5"
         id="stop6336" />
      <stop
         id="stop6338"
         offset="1"
         style="stop-color:#00c846;stop-opacity:1;" />
    </linearGradient>
    <linearGradient
       id="linearGradient4806">
      <stop
         style="stop-color:#0fff63;stop-opacity:1;"
         offset="0"
         id="stop4808" />
      <stop
         id="stop4814"
         offset="0.5"
         style="stop-color:#16f865;stop-opacity:1;" />
      <stop
         style="stop-color:#00c846;stop-opacity:1;"
         offset="1"
         id="stop4810" />
    </linearGradient>
    <radialGradient
       inkscape:collect="always"
       xlink:href="#linearGradient4806"
       id="radialGradient4812"
       cx="195"
       cy="95"
       fx="195"
       fy="95"
       r="236.66667"
       gradientUnits="userSpaceOnUse" />
    <radialGradient
       inkscape:collect="always"
       xlink:href="#linearGradient4806"
       id="radialGradient4822"
       cx="195"
       cy="95"
       fx="195"
       fy="95"
       r="236.66667"
       gradientUnits="userSpaceOnUse" />
    <radialGradient
       inkscape:collect="always"
       xlink:href="#linearGradient4806"
       id="radialGradient4830"
       cx="195"
       cy="95"
       fx="195"
       fy="95"
       r="236.66667"
       gradientUnits="userSpaceOnUse" />
    <radialGradient
       inkscape:collect="always"
       xlink:href="#linearGradient4806"
       id="radialGradient4838"
       cx="195.2146"
       cy="430.86816"
       fx="195.2146"
       fy="430.86816"
       r="125.9729"
       gradientTransform="matrix(1,0,0,1.0765663,0,-32.989989)"
       gradientUnits="userSpaceOnUse" />
    <radialGradient
       inkscape:collect="always"
       xlink:href="#linearGradient4806"
       id="radialGradient4846"
       cx="195.2146"
       cy="430.86816"
       fx="195.2146"
       fy="430.86816"
       r="125.9729"
       gradientTransform="matrix(1,0,0,1.0765663,0,-32.989989)"
       gradientUnits="userSpaceOnUse" />
    <radialGradient
       inkscape:collect="always"
       xlink:href="#linearGradient4806"
       id="radialGradient4848"
       gradientUnits="userSpaceOnUse"
       gradientTransform="matrix(1,0,0,1.0765663,0,-32.989989)"
       cx="195.2146"
       cy="430.86816"
       fx="195.2146"
       fy="430.86816"
       r="125.9729" />
    <radialGradient
       inkscape:collect="always"
       xlink:href="#linearGradient4806"
       id="radialGradient4850"
       gradientUnits="userSpaceOnUse"
       gradientTransform="matrix(1,0,0,1.0765663,0,-32.989989)"
       cx="195.2146"
       cy="430.86816"
       fx="195.2146"
       fy="430.86816"
       r="125.9729" />
    <radialGradient
       inkscape:collect="always"
       xlink:href="#linearGradient4806"
       id="radialGradient4852"
       gradientUnits="userSpaceOnUse"
       gradientTransform="matrix(1,0,0,1.0765663,0,-32.989989)"
       cx="195.2146"
       cy="430.86816"
       fx="195.2146"
       fy="430.86816"
       r="125.9729" />
    <radialGradient
       inkscape:collect="always"
       xlink:href="#linearGradient4806"
       id="radialGradient4854"
       gradientUnits="userSpaceOnUse"
       gradientTransform="matrix(1,0,0,1.0765663,0,-32.989989)"
       cx="195.2146"
       cy="430.86816"
       fx="195.2146"
       fy="430.86816"
       r="125.9729" />
    <radialGradient
       inkscape:collect="always"
       xlink:href="#linearGradient4806"
       id="radialGradient4857"
       gradientUnits="userSpaceOnUse"
       gradientTransform="matrix(1,0,0,1.0765663,6.6666666,-32.989989)"
       cx="195.2146"
       cy="430.86816"
       fx="195.2146"
       fy="430.86816"
       r="125.9729" />
    <radialGradient
       inkscape:collect="always"
       xlink:href="#linearGradient6332"
       id="radialGradient4860"
       gradientUnits="userSpaceOnUse"
       gradientTransform="matrix(1,0,0,1.0765663,0,-32.989989)"
       cx="195.2146"
       cy="430.86816"
       fx="195.2146"
       fy="430.86816"
       r="125.9729" />
    <radialGradient
       inkscape:collect="always"
       xlink:href="#linearGradient6332"
       id="radialGradient4863"
       gradientUnits="userSpaceOnUse"
       gradientTransform="matrix(1,0,0,1.0765663,0,-32.989989)"
       cx="195.2146"
       cy="430.86816"
       fx="195.2146"
       fy="430.86816"
       r="125.9729" />
    <radialGradient
       inkscape:collect="always"
       xlink:href="#linearGradient4806"
       id="radialGradient4868"
       gradientUnits="userSpaceOnUse"
       gradientTransform="matrix(1,0,0,1.0765663,0,-32.989989)"
       cx="195.2146"
       cy="430.86816"
       fx="195.2146"
       fy="430.86816"
       r="125.9729" />
    <radialGradient
       inkscape:collect="always"
       xlink:href="#linearGradient4806"
       id="radialGradient4870"
       gradientUnits="userSpaceOnUse"
       gradientTransform="matrix(1,0,0,1.0765663,0,-32.989989)"
       cx="195.2146"
       cy="430.86816"
       fx="195.2146"
       fy="430.86816"
       r="125.9729" />
    <radialGradient
       inkscape:collect="always"
       xlink:href="#linearGradient4806"
       id="radialGradient4872"
       gradientUnits="userSpaceOnUse"
       gradientTransform="matrix(1,0,0,1.0765663,0,-32.989989)"
       cx="195.2146"
       cy="430.86816"
       fx="195.2146"
       fy="430.86816"
       r="125.9729" />
    <radialGradient
       inkscape:collect="always"
       xlink:href="#linearGradient4806"
       id="radialGradient4874"
       gradientUnits="userSpaceOnUse"
       gradientTransform="matrix(1,0,0,1.0765663,0,-32.989989)"
       cx="195.2146"
       cy="430.86816"
       fx="195.2146"
       fy="430.86816"
       r="125.9729" />
    <radialGradient
       inkscape:collect="always"
       xlink:href="#linearGradient4806"
       id="radialGradient4877"
       gradientUnits="userSpaceOnUse"
       gradientTransform="matrix(-1,0,0,1.0765663,802.4295,-32.989989)"
       cx="195.2146"
       cy="430.86816"
       fx="195.2146"
       fy="430.86816"
       r="125.9729" />
    <radialGradient
       inkscape:collect="always"
       xlink:href="#linearGradient6332"
       id="radialGradient4880"
       gradientUnits="userSpaceOnUse"
       gradientTransform="matrix(-1,0,0,1.0765663,802.4295,-32.989989)"
       cx="195.2146"
       cy="430.86816"
       fx="195.2146"
       fy="430.86816"
       r="125.9729" />
    <radialGradient
       inkscape:collect="always"
       xlink:href="#linearGradient6332"
       id="radialGradient4883"
       gradientUnits="userSpaceOnUse"
       gradientTransform="matrix(-1,0,0,1.0765663,802.4295,-32.989989)"
       cx="195.2146"
       cy="430.86816"
       fx="195.2146"
       fy="430.86816"
       r="125.9729" />
    <radialGradient
       inkscape:collect="always"
       xlink:href="#linearGradient6332"
       id="radialGradient4886"
       gradientUnits="userSpaceOnUse"
       gradientTransform="matrix(-1,0,0,1.0765663,802.4295,-32.989989)"
       cx="195.2146"
       cy="430.86816"
       fx="195.2146"
       fy="430.86816"
       r="125.9729" />
    <radialGradient
       inkscape:collect="always"
       xlink:href="#linearGradient6332"
       id="radialGradient6330"
       cx="225.52705"
       cy="402.33392"
       fx="225.52705"
       fy="402.33392"
       r="79.127525"
       gradientTransform="matrix(1,0,0,1.3533083,0,-142.1479)"
       gradientUnits="userSpaceOnUse"
       spreadMethod="pad" />
    <radialGradient
       inkscape:collect="always"
       xlink:href="#linearGradient4806"
       id="radialGradient6342"
       gradientUnits="userSpaceOnUse"
       gradientTransform="matrix(-1,0,0,1.0765663,800.67355,-32.990007)"
       cx="195.2146"
       cy="430.86816"
       fx="195.2146"
       fy="430.86816"
       r="125.9729" />
    <radialGradient
       inkscape:collect="always"
       xlink:href="#linearGradient6344"
       id="radialGradient6350"
       cx="195"
       cy="95"
       fx="195"
       fy="95"
       r="236.66667"
       gradientUnits="userSpaceOnUse" />
    <radialGradient
       inkscape:collect="always"
       xlink:href="#linearGradient6365"
       id="radialGradient6371"
       cx="388.33334"
       cy="220"
       fx="388.33334"
       fy="220"
       r="93.333336"
       gradientUnits="userSpaceOnUse" />
  </defs>
  <sodipodi:namedview
     id="base"
     pagecolor="#ffffff"
     bordercolor="#666666"
     borderopacity="1.0"
     inkscape:pageopacity="0.0"
     inkscape:pageshadow="2"
     inkscape:zoom="1"
     inkscape:cx="410.19295"
     inkscape:cy="500.58856"
     inkscape:current-layer="layer1"
     inkscape:document-units="px"
     showgrid="false"
     inkscape:window-width="1366"
     inkscape:window-height="720"
     inkscape:window-x="0"
     inkscape:window-y="0"
     inkscape:window-maximized="1" />
  <metadata
     id="metadata2990">
    <rdf:RDF>
      <cc:Work
         rdf:about="">
        <dc:format>image/svg+xml</dc:format>
        <dc:type
           rdf:resource="http://purl.org/dc/dcmitype/StillImage" />
        <dc:title></dc:title>
      </cc:Work>
    </rdf:RDF>
  </metadata>
  <g
     id="layer1"
     inkscape:label="Layer 1"
     inkscape:groupmode="layer">
    <path
       sodipodi:type="arc"
       style="fill:#ececec;fill-opacity:1;fill-rule:evenodd;stroke:#000000;stroke-width:0;stroke-linecap:butt;stroke-linejoin:miter;stroke-miterlimit:4;stroke-opacity:1;stroke-dasharray:none"
       id="path3946"
       sodipodi:cx="195"
       sodipodi:cy="95"
       sodipodi:rx="236.66667"
       sodipodi:ry="236.66667"
       d="M 431.66667,95 A 236.66667,236.66667 0 1 1 -41.666672,95 236.66667,236.66667 0 1 1 431.66667,95 z"
       transform="matrix(1.4569464,0,0,0.36361411,115.89545,475.28171)" />
    <path
       style="fill:url(#radialGradient6330);fill-opacity:1.0;fill-rule:evenodd;stroke:#000000;stroke-width:0;stroke-linecap:butt;stroke-linejoin:miter;stroke-miterlimit:4;stroke-opacity:1"
       d="m 258.57413,381.18514 c 30.10555,54.76178 75.06474,91.06535 20.30295,121.17088 -54.76177,30.10555 -69.1702,-43.67907 -88.30435,-77.96813 -19.83464,-35.5444 -75.47924,-90.23626 -20.71745,-120.34181 54.76177,-30.10554 58.6133,22.37728 88.71885,77.13906 z"
       id="path3898"
       inkscape:connector-curvature="0"
       sodipodi:nodetypes="ssass" />
    <path
       sodipodi:nodetypes="ssass"
       inkscape:connector-curvature="0"
       id="path3901"
       d="m 146.97044,410.73815 c 3.92387,-62.36825 -14.584,-117.1107 47.78425,-113.18682 62.36826,3.92387 34.99792,73.94272 32.78042,113.1465 -2.29869,40.63908 15.37823,116.6328 -46.99004,112.70892 -62.36826,-3.92388 -37.49851,-50.30034 -33.57463,-112.6686 z"
       style="fill:url(#radialGradient4863);fill-opacity:1.0;fill-rule:evenodd;stroke:#000000;stroke-width:0;stroke-linecap:butt;stroke-linejoin:miter;stroke-miterlimit:4;stroke-opacity:1" />
    <path
       id="path3915"
       style="fill:url(#radialGradient4860);fill-opacity:1.0;fill-rule:evenodd;stroke:#000000;stroke-width:0;stroke-linecap:butt;stroke-linejoin:miter;stroke-miterlimit:4;stroke-opacity:1"
       d="m 131.42171,489.53023 c 47.4367,-7.45529 74.23432,-5.58213 75.25475,4.86862 2.99885,30.71286 -36.10952,51.81669 -62.62752,52.06516 -3.4361,0.0322 -29.48357,5.79063 -37.85846,0.24047 -8.313939,-5.50976 55.39203,-18.03601 48.91771,-24.47911 -11.62252,-11.56645 -56.698039,27.58566 -67.817954,16.35153 -6.880903,-6.95158 43.567244,-31.34923 43.567244,-31.34923 -15.40338,-11.53399 -52.553495,31.1136 -60.687085,20.84464 -7.208376,-9.10084 28.905487,-33.45851 61.251315,-38.54208 z"
       inkscape:connector-curvature="0"
       sodipodi:nodetypes="sssssssss" />
    <path
       sodipodi:nodetypes="ssass"
       inkscape:connector-curvature="0"
       id="path3930"
       d="m 543.85537,381.18514 c -30.10555,54.76178 -75.06474,91.06535 -20.30295,121.17088 54.76177,30.10555 69.1702,-43.67907 88.30435,-77.96813 19.83464,-35.5444 75.47924,-90.23626 20.71745,-120.34181 -54.76177,-30.10554 -58.6133,22.37728 -88.71885,77.13906 z"
       style="fill:url(#radialGradient4886);fill-opacity:1.0;fill-rule:evenodd;stroke:#000000;stroke-width:0;stroke-linecap:butt;stroke-linejoin:miter;stroke-miterlimit:4;stroke-opacity:1" />
    <path
       style="fill:url(#radialGradient4883);fill-opacity:1.0;fill-rule:evenodd;stroke:#000000;stroke-width:0;stroke-linecap:butt;stroke-linejoin:miter;stroke-miterlimit:4;stroke-opacity:1"
       d="m 655.45906,410.73815 c -3.92387,-62.36825 14.584,-117.1107 -47.78425,-113.18682 -62.36826,3.92387 -34.99792,73.94272 -32.78042,113.1465 2.29869,40.63908 -15.37823,116.6328 46.99004,112.70892 62.36826,-3.92388 37.49851,-50.30034 33.57463,-112.6686 z"
       id="path3932"
       inkscape:connector-curvature="0"
       sodipodi:nodetypes="ssass" />
    <path
       sodipodi:nodetypes="sssssssss"
       inkscape:connector-curvature="0"
       d="m 671.00779,489.53023 c -47.4367,-7.45529 -74.23432,-5.58213 -75.25475,4.86862 -2.99885,30.71286 36.10952,51.81669 62.62752,52.06516 3.4361,0.0322 29.48357,5.79063 37.85846,0.24047 8.31394,-5.50976 -55.39203,-18.03601 -48.91771,-24.47911 11.62252,-11.56645 56.69804,27.58566 67.81795,16.35153 6.88091,-6.95158 -43.56724,-31.34923 -43.56724,-31.34923 15.40338,-11.53399 52.55349,31.1136 60.68708,20.84464 7.20838,-9.10084 -28.90548,-33.45851 -61.25131,-38.54208 z"
       style="fill:url(#radialGradient4880);fill-opacity:1.0;fill-rule:evenodd;stroke:#000000;stroke-width:0;stroke-linecap:butt;stroke-linejoin:miter;stroke-miterlimit:4;stroke-opacity:1"
       id="path3934" />
    <path
       transform="matrix(0.83596423,0,0,0.83596423,236.98698,242.5834)"
       d="M 431.66667,95 A 236.66667,236.66667 0 1 1 -41.666672,95 236.66667,236.66667 0 1 1 431.66667,95 z"
       sodipodi:ry="236.66667"
       sodipodi:rx="236.66667"
       sodipodi:cy="95"
       sodipodi:cx="195"
       id="path3875"
       style="fill:url(#radialGradient4812);fill-opacity:1.0;fill-rule:evenodd;stroke:#000000;stroke-width:0;stroke-linecap:butt;stroke-linejoin:miter;stroke-miterlimit:4;stroke-opacity:1;stroke-dasharray:none"
       sodipodi:type="arc" />
    <path
       sodipodi:type="arc"
       style="fill:url(#radialGradient6350);fill-opacity:1.0;fill-rule:evenodd;stroke:#000000;stroke-width:0;stroke-linecap:butt;stroke-linejoin:miter;stroke-miterlimit:4;stroke-opacity:1;stroke-dasharray:none"
       id="path3896"
       sodipodi:cx="195"
       sodipodi:cy="95"
       sodipodi:rx="236.66667"
       sodipodi:ry="236.66667"
       d="M 431.66667,95 A 236.66667,236.66667 0 1 1 -41.666672,95 236.66667,236.66667 0 1 1 431.66667,95 z"
       transform="matrix(0.52121862,0,0,0.52121862,300.36237,338.48424)" />
    <path
       sodipodi:nodetypes="cssssssssc"
       inkscape:connector-curvature="0"
       d="m 266.47761,500.08003 c 10.78981,-21.54685 25.87989,-20.7712 35.25055,-16.03298 27.53858,13.92476 32.56508,22.53875 18.56583,45.06177 -1.81397,2.91845 -8.25161,28.52379 -18.56897,24.61512 -9.32702,-3.53348 12.93863,-48.95454 4.02945,-46.94044 -15.99353,3.61557 -5.57538,40.23792 -21.01904,43.60722 -9.55639,2.08489 -4.63811,-31.16787 -4.63811,-31.16787 -17.99199,6.82529 -3.93031,29.42824 -16.95884,30.79327 -11.54655,1.20979 -9.7004,-19.90169 3.33917,-49.93609 z"
       style="fill:url(#radialGradient4857);fill-opacity:1;fill-rule:evenodd;stroke:#000000;stroke-width:0;stroke-linecap:butt;stroke-linejoin:miter;stroke-miterlimit:4;stroke-opacity:1"
       id="path3909" />
    <path
       sodipodi:type="arc"
       style="fill:url(#radialGradient4822);fill-opacity:1.0;fill-rule:evenodd;stroke:#000000;stroke-width:0;stroke-linecap:butt;stroke-linejoin:miter;stroke-miterlimit:4;stroke-opacity:1;stroke-dasharray:none"
       id="path3873"
       sodipodi:cx="195"
       sodipodi:cy="95"
       sodipodi:rx="236.66667"
       sodipodi:ry="236.66667"
       d="M 431.66667,95 A 236.66667,236.66667 0 1 1 -41.666672,95 236.66667,236.66667 0 1 1 431.66667,95 z"
       transform="matrix(0.34335408,0,0,0.38275214,410.37094,77.849538)" />
    <path
       transform="matrix(0.34335408,0,0,0.38275214,255.30608,77.849538)"
       d="M 431.66667,95 A 236.66667,236.66667 0 1 1 -41.666672,95 236.66667,236.66667 0 1 1 431.66667,95 z"
       sodipodi:ry="236.66667"
       sodipodi:rx="236.66667"
       sodipodi:cy="95"
       sodipodi:cx="195"
       id="path3871"
       style="fill:url(#radialGradient4830);fill-opacity:1.0;fill-rule:evenodd;stroke:#000000;stroke-width:0;stroke-linecap:butt;stroke-linejoin:miter;stroke-miterlimit:4;stroke-opacity:1;stroke-dasharray:none"
       sodipodi:type="arc" />
    <path
       sodipodi:type="arc"
       style="fill:#ffffff;fill-opacity:1;stroke-width:0;stroke-miterlimit:4;stroke-dasharray:none"
       id="path3786"
       sodipodi:cx="388.33334"
       sodipodi:cy="220"
       sodipodi:rx="93.333336"
       sodipodi:ry="93.333336"
       d="m 481.66668,220 a 93.333336,93.333336 0 1 1 -186.66667,0 93.333336,93.333336 0 1 1 186.66667,0 z"
       transform="matrix(0.81613081,0,0,0.81613081,4.8185154,-65.509985)" />
    <g
       id="g3818"
       transform="matrix(0.81613081,0,0,0.81613081,72.285337,-130.80045)">
      <path
         transform="matrix(0.60784314,0,0,0.60784314,215.93137,112.58169)"
         d="m 285,308.33334 c 0,46.94421 -38.0558,85 -85,85 -46.9442,0 -85,-38.05579 -85,-85 0,-46.9442 38.0558,-85 85,-85 46.9442,0 85,38.0558 85,85 z"
         sodipodi:ry="85"
         sodipodi:rx="85"
         sodipodi:cy="308.33334"
         sodipodi:cx="200"
         id="path3788"
         style="fill:#000000;fill-opacity:1;stroke-width:0;stroke-miterlimit:4;stroke-dasharray:none"
         sodipodi:type="arc" />
      <path
         transform="translate(5.7124469,-10.472819)"
         d="m 368.33334,288.33334 c 0,6.44333 -5.59644,11.66667 -12.5,11.66667 -6.90356,0 -12.5,-5.22334 -12.5,-11.66667 0,-6.44332 5.59644,-11.66666 12.5,-11.66666 6.90356,0 12.5,5.22334 12.5,11.66666 z"
         sodipodi:ry="11.666667"
         sodipodi:rx="12.5"
         sodipodi:cy="288.33334"
         sodipodi:cx="355.83334"
         id="path3814"
         style="fill:#ffffff;fill-opacity:1;stroke-width:0;stroke-miterlimit:4;stroke-dasharray:none"
         sodipodi:type="arc" />
      <path
         sodipodi:type="arc"
         style="fill:#ffffff;fill-opacity:1;stroke-width:0;stroke-miterlimit:4;stroke-dasharray:none"
         id="path3816"
         sodipodi:cx="355.83334"
         sodipodi:cy="288.33334"
         sodipodi:rx="12.5"
         sodipodi:ry="11.666667"
         d="m 368.33334,288.33334 c 0,6.44333 -5.59644,11.66667 -12.5,11.66667 -6.90356,0 -12.5,-5.22334 -12.5,-11.66667 0,-6.44332 5.59644,-11.66666 12.5,-11.66666 6.90356,0 12.5,5.22334 12.5,11.66666 z"
         transform="matrix(0.69533617,0,0,0.69533617,69.374498,129.73601)" />
    </g>
    <g
       id="g3831"
       transform="matrix(0.81613081,0,0,0.81613081,73.509532,-130.80045)">
      <path
         sodipodi:type="arc"
         style="fill:#ffffff;fill-opacity:1;stroke-width:0;stroke-miterlimit:4;stroke-dasharray:none"
         id="path3790"
         sodipodi:cx="388.33334"
         sodipodi:cy="220"
         sodipodi:rx="93.333336"
         sodipodi:ry="93.333336"
         d="m 481.66668,220 c 0,51.54658 -41.78676,93.33334 -93.33334,93.33334 -51.54657,0 -93.33333,-41.78676 -93.33333,-93.33334 0,-51.54658 41.78676,-93.33334 93.33333,-93.33334 51.54658,0 93.33334,41.78676 93.33334,93.33334 z"
         transform="translate(107.49999,80)" />
      <g
         transform="translate(126.5,0)"
         id="g3823">
        <path
           transform="matrix(0.60784314,0,0,0.60784314,215.93137,112.58169)"
           d="m 285,308.33334 c 0,46.94421 -38.0558,85 -85,85 -46.9442,0 -85,-38.05579 -85,-85 0,-46.9442 38.0558,-85 85,-85 46.9442,0 85,38.0558 85,85 z"
           sodipodi:ry="85"
           sodipodi:rx="85"
           sodipodi:cy="308.33334"
           sodipodi:cx="200"
           id="path3825"
           style="fill:#000000;fill-opacity:1;stroke-width:0;stroke-miterlimit:4;stroke-dasharray:none"
           sodipodi:type="arc" />
        <path
           transform="translate(5.7124469,-10.472819)"
           d="m 368.33334,288.33334 c 0,6.44333 -5.59644,11.66667 -12.5,11.66667 -6.90356,0 -12.5,-5.22334 -12.5,-11.66667 0,-6.44332 5.59644,-11.66666 12.5,-11.66666 6.90356,0 12.5,5.22334 12.5,11.66666 z"
           sodipodi:ry="11.666667"
           sodipodi:rx="12.5"
           sodipodi:cy="288.33334"
           sodipodi:cx="355.83334"
           id="path3827"
           style="fill:#ffffff;fill-opacity:1;stroke-width:0;stroke-miterlimit:4;stroke-dasharray:none"
           sodipodi:type="arc" />
        <path
           sodipodi:type="arc"
           style="fill:#ffffff;fill-opacity:1;stroke-width:0;stroke-miterlimit:4;stroke-dasharray:none"
           id="path3829"
           sodipodi:cx="355.83334"
           sodipodi:cy="288.33334"
           sodipodi:rx="12.5"
           sodipodi:ry="11.666667"
           d="m 368.33334,288.33334 c 0,6.44333 -5.59644,11.66667 -12.5,11.66667 -6.90356,0 -12.5,-5.22334 -12.5,-11.66667 0,-6.44332 5.59644,-11.66666 12.5,-11.66666 6.90356,0 12.5,5.22334 12.5,11.66666 z"
           transform="matrix(0.69533617,0,0,0.69533617,69.374498,129.73601)" />
      </g>
    </g>
    <path
       style="fill:#790000;fill-opacity:1;stroke-width:0;stroke-miterlimit:4"
       d="m 557.65306,220.59617 c 0,18.87912 -70.58368,106.63266 -157.65306,106.63266 -87.06938,0 -157.65306,-87.75354 -157.65306,-106.63266 0,-18.87912 70.58368,35.20409 157.65306,35.20409 87.06938,0 157.65306,-54.08321 157.65306,-35.20409 z"
       id="path3893"
       inkscape:connector-curvature="0"
       sodipodi:nodetypes="sssss" />
    <path
       sodipodi:nodetypes="sssss"
       inkscape:connector-curvature="0"
       id="path3938"
       d="m 444.38775,299.00433 c 0,18.87912 -22.15733,45.40817 -49.48979,45.40817 -27.33246,0 -49.48979,-26.52905 -49.48979,-45.40817 0,-18.87912 22.15733,-26.0204 49.48979,-26.0204 27.33246,0 49.48979,7.14128 49.48979,26.0204 z"
       style="fill:#c83737;fill-opacity:1;stroke-width:0;stroke-miterlimit:4" />
    <path
       id="path6340"
       style="fill:url(#radialGradient6342);fill-opacity:1;fill-rule:evenodd;stroke:#000000;stroke-width:0;stroke-linecap:butt;stroke-linejoin:miter;stroke-miterlimit:4;stroke-opacity:1"
       d="m 540.86261,500.08003 c -10.78981,-21.54685 -25.87989,-20.7712 -35.25055,-16.03298 -27.53858,13.92476 -32.56508,22.53875 -18.56583,45.06177 1.81397,2.91845 8.25161,28.52379 18.56897,24.61512 9.32702,-3.53348 -12.93863,-48.95454 -4.02945,-46.94044 15.99353,3.61557 5.57538,40.23792 21.01904,43.60722 9.55639,2.08489 4.63811,-31.16787 4.63811,-31.16787 17.99199,6.82529 3.93031,29.42824 16.95884,30.79327 11.54655,1.20979 9.7004,-19.90169 -3.33917,-49.93609 z"
       inkscape:connector-curvature="0"
       sodipodi:nodetypes="cssssssssc" />
  </g>
</svg>
