<?xml version="1.0" encoding="UTF-8" standalone="no"?>
<!-- Created with Inkscape (http://www.inkscape.org/) -->

<svg
   xmlns:dc="http://purl.org/dc/elements/1.1/"
   xmlns:cc="http://creativecommons.org/ns#"
   xmlns:rdf="http://www.w3.org/1999/02/22-rdf-syntax-ns#"
   xmlns:svg="http://www.w3.org/2000/svg"
   xmlns="http://www.w3.org/2000/svg"
   xmlns:sodipodi="http://sodipodi.sourceforge.net/DTD/sodipodi-0.dtd"
   xmlns:inkscape="http://www.inkscape.org/namespaces/inkscape"
   width="640px"
   height="480px"
   id="svg3948"
   version="1.1"
   inkscape:version="0.48.2 r9819"
   sodipodi:docname="sheep.svg">
  <defs
     id="defs3950" />
  <sodipodi:namedview
     id="base"
     pagecolor="#ffffff"
     bordercolor="#666666"
     borderopacity="1.0"
     inkscape:pageopacity="0.0"
     inkscape:pageshadow="2"
     inkscape:zoom="0.33589188"
     inkscape:cx="283.87886"
     inkscape:cy="436.64574"
     inkscape:current-layer="layer1"
     inkscape:document-units="px"
     showgrid="false"
     showguides="true"
     inkscape:guide-bbox="true"
     inkscape:window-width="1366"
     inkscape:window-height="720"
     inkscape:window-x="0"
     inkscape:window-y="0"
     inkscape:window-maximized="1" />
  <metadata
     id="metadata3953">
    <rdf:RDF>
      <cc:Work
         rdf:about="">
        <dc:format>image/svg+xml</dc:format>
        <dc:type
           rdf:resource="http://purl.org/dc/dcmitype/StillImage" />
        <dc:title></dc:title>
      </cc:Work>
    </rdf:RDF>
  </metadata>
  <g
     id="layer1"
     inkscape:label="Layer 1"
     inkscape:groupmode="layer">
    <path
       sodipodi:type="arc"
       style="fill:#ececec;fill-opacity:1;fill-rule:evenodd;stroke:#000000;stroke-width:0;stroke-linecap:butt;stroke-linejoin:miter;stroke-miterlimit:4;stroke-opacity:1;stroke-dasharray:none"
       id="path3946"
       sodipodi:cx="195"
       sodipodi:cy="95"
       sodipodi:rx="236.66667"
       sodipodi:ry="236.66667"
       d="M 431.66667,95 A 236.66667,236.66667 0 1 1 -41.666672,95 236.66667,236.66667 0 1 1 431.66667,95 z"
       transform="matrix(1.0858511,0,0,0.40586763,107.83901,215.64193)"
       inkscape:export-filename="/Users/luca/Desktop/sheep.png"
       inkscape:export-xdpi="90"
       inkscape:export-ydpi="90" />
    <path
       sodipodi:type="arc"
       style="fill:#ffffff;fill-opacity:1;stroke:#7a7a7a;stroke-width:1;stroke-miterlimit:4;stroke-opacity:1;stroke-dasharray:none"
       id="path4234"
       sodipodi:cx="27.106382"
       sodipodi:cy="-204.11348"
       sodipodi:rx="247.82979"
       sodipodi:ry="247.82979"
       d="m 274.93617,-204.11348 a 247.82979,247.82979 0 1 1 -495.65958,0 247.82979,247.82979 0 1 1 495.65958,0 z"
       transform="translate(292.89362,214.2695)"
       inkscape:export-filename="/Users/luca/Desktop/sheep.png"
       inkscape:export-xdpi="90"
       inkscape:export-ydpi="90" />
    <path
       style="fill:#f9f9f9;fill-opacity:1;stroke:none;stroke-width:1;stroke-miterlimit:4;stroke-opacity:1;stroke-dasharray:none"
       d="M 77.4375 -40.84375 C 73.993363 -24.381952 72.15625 -7.3286623 72.15625 10.15625 C 72.15625 147.02886 183.12739 258 320 258 C 456.87261 258 567.84375 147.02886 567.84375 10.15625 C 567.84375 -7.3286623 566.00664 -24.381952 562.5625 -40.84375 C 539.04579 71.558087 439.3877 156 320 156 C 200.6123 156 100.95421 71.558087 77.4375 -40.84375 z "
       id="path4762"
       inkscape:export-filename="/Users/luca/Desktop/sheep.png"
       inkscape:export-xdpi="90"
       inkscape:export-ydpi="90" />
    <path
       style="fill:#008000;fill-opacity:1;stroke-width:0;stroke-miterlimit:4"
       d="m 499.53191,129.23403 c 0,7.84166 -90.03871,-1e-5 -182,-1e-5 -91.96128,0 -184.58155,41.40195 -184.58155,33.56029 0,-7.84166 92.62027,-61.95744 184.58155,-61.95744 91.96129,0 182,20.5555 182,28.39716 z"
       id="path4775"
       inkscape:connector-curvature="0"
       sodipodi:nodetypes="sssss"
       inkscape:export-filename="/Users/luca/Desktop/sheep.png"
       inkscape:export-xdpi="90"
       inkscape:export-ydpi="90" />
    <path
       sodipodi:nodetypes="sssss"
       inkscape:connector-curvature="0"
       id="path4778"
       d="m 493.07801,90.703339 c 0,-7.84165 -83.58481,23.234051 -175.5461,23.234051 -91.96128,0 -188.45389,-3.96932 -188.45389,3.87233 0,7.84166 106.81885,16.78014 198.78013,16.78014 91.96129,0 165.21986,-36.044861 165.21986,-43.886521 z"
       style="fill:#008000;fill-opacity:1;stroke-width:0;stroke-miterlimit:4"
       inkscape:export-filename="/Users/luca/Desktop/sheep.png"
       inkscape:export-xdpi="90"
       inkscape:export-ydpi="90" />
    <path
       style="fill:#008000;fill-opacity:1;stroke-width:0;stroke-miterlimit:4"
       d="m 493.07801,90.703339 c 0,-7.84165 -83.58481,23.234051 -175.5461,23.234051 -250.089463,-10.95126 -163.4099,20.03482 10.32624,20.65247 91.96129,0 165.21986,-36.044861 165.21986,-43.886521 z"
       id="path4780"
       inkscape:connector-curvature="0"
       sodipodi:nodetypes="sccs"
       inkscape:export-filename="/Users/luca/Desktop/sheep.png"
       inkscape:export-xdpi="90"
       inkscape:export-ydpi="90" />
    <path
       sodipodi:type="arc"
       style="fill:#4d4d4d;fill-opacity:1;stroke-width:0;stroke-miterlimit:4;stroke-dasharray:none"
       id="path4230"
       sodipodi:cx="103.26241"
       sodipodi:cy="113.41843"
       sodipodi:rx="243.95744"
       sodipodi:ry="243.95744"
       d="m 347.21986,113.41843 a 243.95744,243.95744 0 1 1 -487.91489,0 243.95744,243.95744 0 1 1 487.91489,0 z"
       transform="matrix(0.68253968,0,0,0.68253968,245.76044,-75.00124)"
       inkscape:export-filename="/Users/luca/Desktop/sheep.png"
       inkscape:export-xdpi="90"
       inkscape:export-ydpi="90" />
    <g
       id="g3838"
       transform="matrix(0.55704166,0,0,0.55704166,95.964012,-213.84281)"
       inkscape:export-filename="/Users/luca/Desktop/sheep.png"
       inkscape:export-xdpi="90"
       inkscape:export-ydpi="90">
      <path
         transform="translate(-84.166675,80)"
         d="m 481.66668,220 c 0,51.54658 -41.78676,93.33334 -93.33334,93.33334 -51.54657,0 -93.33333,-41.78676 -93.33333,-93.33334 0,-51.54658 41.78676,-93.33334 93.33333,-93.33334 51.54658,0 93.33334,41.78676 93.33334,93.33334 z"
         sodipodi:ry="93.333336"
         sodipodi:rx="93.333336"
         sodipodi:cy="220"
         sodipodi:cx="388.33334"
         id="path3786"
         style="fill:#ffffff;fill-opacity:1;stroke-width:0;stroke-miterlimit:4;stroke-dasharray:none"
         sodipodi:type="arc" />
      <g
         transform="translate(-1.499998,0)"
         id="g3818">
        <path
           sodipodi:type="arc"
           style="fill:#000000;fill-opacity:1;stroke-width:0;stroke-miterlimit:4;stroke-dasharray:none"
           id="path3788"
           sodipodi:cx="200"
           sodipodi:cy="308.33334"
           sodipodi:rx="85"
           sodipodi:ry="85"
           d="m 285,308.33334 c 0,46.94421 -38.0558,85 -85,85 -46.9442,0 -85,-38.05579 -85,-85 0,-46.9442 38.0558,-85 85,-85 46.9442,0 85,38.0558 85,85 z"
           transform="matrix(0.60784314,0,0,0.60784314,215.93137,112.58169)" />
        <path
           sodipodi:type="arc"
           style="fill:#ffffff;fill-opacity:1;stroke-width:0;stroke-miterlimit:4;stroke-dasharray:none"
           id="path3814"
           sodipodi:cx="355.83334"
           sodipodi:cy="288.33334"
           sodipodi:rx="12.5"
           sodipodi:ry="11.666667"
           d="m 368.33334,288.33334 c 0,6.44333 -5.59644,11.66667 -12.5,11.66667 -6.90356,0 -12.5,-5.22334 -12.5,-11.66667 0,-6.44332 5.59644,-11.66666 12.5,-11.66666 6.90356,0 12.5,5.22334 12.5,11.66666 z"
           transform="translate(5.7124469,-10.472819)" />
        <path
           transform="matrix(0.69533617,0,0,0.69533617,69.374498,129.73601)"
           d="m 368.33334,288.33334 c 0,6.44333 -5.59644,11.66667 -12.5,11.66667 -6.90356,0 -12.5,-5.22334 -12.5,-11.66667 0,-6.44332 5.59644,-11.66666 12.5,-11.66666 6.90356,0 12.5,5.22334 12.5,11.66666 z"
           sodipodi:ry="11.666667"
           sodipodi:rx="12.5"
           sodipodi:cy="288.33334"
           sodipodi:cx="355.83334"
           id="path3816"
           style="fill:#ffffff;fill-opacity:1;stroke-width:0;stroke-miterlimit:4;stroke-dasharray:none"
           sodipodi:type="arc" />
      </g>
    </g>
    <g
       id="g3831"
       transform="matrix(0.55704166,0,0,0.55704166,95.964012,-213.84281)"
       inkscape:export-filename="/Users/luca/Desktop/sheep.png"
       inkscape:export-xdpi="90"
       inkscape:export-ydpi="90">
      <path
         sodipodi:type="arc"
         style="fill:#ffffff;fill-opacity:1;stroke-width:0;stroke-miterlimit:4;stroke-dasharray:none"
         id="path3790"
         sodipodi:cx="388.33334"
         sodipodi:cy="220"
         sodipodi:rx="93.333336"
         sodipodi:ry="93.333336"
         d="m 481.66668,220 c 0,51.54658 -41.78676,93.33334 -93.33334,93.33334 -51.54657,0 -93.33333,-41.78676 -93.33333,-93.33334 0,-51.54658 41.78676,-93.33334 93.33333,-93.33334 51.54658,0 93.33334,41.78676 93.33334,93.33334 z"
         transform="translate(107.49999,80)" />
      <g
         transform="translate(126.5,0)"
         id="g3823">
        <path
           transform="matrix(0.60784314,0,0,0.60784314,215.93137,112.58169)"
           d="m 285,308.33334 c 0,46.94421 -38.0558,85 -85,85 -46.9442,0 -85,-38.05579 -85,-85 0,-46.9442 38.0558,-85 85,-85 46.9442,0 85,38.0558 85,85 z"
           sodipodi:ry="85"
           sodipodi:rx="85"
           sodipodi:cy="308.33334"
           sodipodi:cx="200"
           id="path3825"
           style="fill:#000000;fill-opacity:1;stroke-width:0;stroke-miterlimit:4;stroke-dasharray:none"
           sodipodi:type="arc" />
        <path
           transform="translate(5.7124469,-10.472819)"
           d="m 368.33334,288.33334 c 0,6.44333 -5.59644,11.66667 -12.5,11.66667 -6.90356,0 -12.5,-5.22334 -12.5,-11.66667 0,-6.44332 5.59644,-11.66666 12.5,-11.66666 6.90356,0 12.5,5.22334 12.5,11.66666 z"
           sodipodi:ry="11.666667"
           sodipodi:rx="12.5"
           sodipodi:cy="288.33334"
           sodipodi:cx="355.83334"
           id="path3827"
           style="fill:#ffffff;fill-opacity:1;stroke-width:0;stroke-miterlimit:4;stroke-dasharray:none"
           sodipodi:type="arc" />
        <path
           sodipodi:type="arc"
           style="fill:#ffffff;fill-opacity:1;stroke-width:0;stroke-miterlimit:4;stroke-dasharray:none"
           id="path3829"
           sodipodi:cx="355.83334"
           sodipodi:cy="288.33334"
           sodipodi:rx="12.5"
           sodipodi:ry="11.666667"
           d="m 368.33334,288.33334 c 0,6.44333 -5.59644,11.66667 -12.5,11.66667 -6.90356,0 -12.5,-5.22334 -12.5,-11.66667 0,-6.44332 5.59644,-11.66666 12.5,-11.66666 6.90356,0 12.5,5.22334 12.5,11.66666 z"
           transform="matrix(0.69533617,0,0,0.69533617,69.374498,129.73601)" />
      </g>
    </g>
    <path
       style="fill:#4d4d4d;fill-opacity:1;stroke-width:0;stroke-miterlimit:4"
       d="m 114.87943,-95.687954 c 0,26.376489 22.67315,12.907795 49.04964,12.907795 26.37649,0 47.75886,28.958056 47.75886,2.581567 0,-26.376488 -21.38237,-47.758858 -47.75886,-47.758858 -26.37649,0 -49.04964,5.89301 -49.04964,32.269496 z"
       id="path4744"
       inkscape:connector-curvature="0"
       sodipodi:nodetypes="sssss"
       inkscape:export-filename="/Users/luca/Desktop/sheep.png"
       inkscape:export-xdpi="90"
       inkscape:export-ydpi="90" />
    <path
       sodipodi:nodetypes="sssss"
       inkscape:connector-curvature="0"
       id="path4747"
       d="m 521.68793,-95.687954 c 0,26.376489 -22.67315,12.907795 -49.04964,12.907795 -26.37649,0 -47.75886,28.958056 -47.75886,2.581567 0,-26.376488 21.38237,-47.758858 47.75886,-47.758858 26.37649,0 49.04964,5.89301 49.04964,32.269496 z"
       style="fill:#4d4d4d;fill-opacity:1;stroke-width:0;stroke-miterlimit:4"
       inkscape:export-filename="/Users/luca/Desktop/sheep.png"
       inkscape:export-xdpi="90"
       inkscape:export-ydpi="90" />
    <path
       style="fill:#000000;fill-opacity:1;stroke:none"
       d="m 368.37619,91.552892 c 7.45704,7.457048 4.29055,22.713828 -7.07259,34.076958 -11.36313,11.36312 -26.6199,14.52962 -34.07695,7.07257 -7.45704,-7.45705 -4.29056,-22.71382 7.07257,-34.076952 11.36313,-11.363128 26.61991,-14.529629 34.07696,-7.072576 z"
       id="path4749"
       inkscape:connector-curvature="0"
       inkscape:export-filename="/Users/luca/Desktop/sheep.png"
       inkscape:export-xdpi="90"
       inkscape:export-ydpi="90" />
    <path
       inkscape:connector-curvature="0"
       id="path4752"
       d="m 271.62381,91.552892 c -7.45705,7.457048 -4.29055,22.713828 7.07258,34.076958 11.36313,11.36312 26.61991,14.52962 34.07695,7.07257 7.45705,-7.45705 4.29057,-22.71382 -7.07256,-34.076952 C 294.33764,87.26234 279.08087,84.095839 271.62381,91.552892 z"
       style="fill:#000000;fill-opacity:1;stroke:none"
       inkscape:export-filename="/Users/luca/Desktop/sheep.png"
       inkscape:export-xdpi="90"
       inkscape:export-ydpi="90" />
    <path
       style="fill:#4d4d4d;fill-opacity:1;stroke-width:0;stroke-miterlimit:4"
       d="m 261.28369,273.43261 c 0,39.92118 -33.65329,25.8156 -73.57447,25.8156 -39.92118,0 -70.99291,14.10558 -70.99291,-25.8156 0,-39.92118 32.36251,-72.28369 72.28369,-72.28369 39.92118,0 72.28369,32.36251 72.28369,72.28369 z"
       id="path4754"
       inkscape:connector-curvature="0"
       sodipodi:nodetypes="sssss"
       inkscape:export-filename="/Users/luca/Desktop/sheep.png"
       inkscape:export-xdpi="90"
       inkscape:export-ydpi="90" />
    <path
       sodipodi:nodetypes="sssss"
       inkscape:connector-curvature="0"
       id="path4757"
       d="m 523.28369,273.43261 c 0,39.92118 -33.65329,25.8156 -73.57447,25.8156 -39.92118,0 -70.99291,14.10558 -70.99291,-25.8156 0,-39.92118 32.36251,-72.28369 72.28369,-72.28369 39.92118,0 72.28369,32.36251 72.28369,72.28369 z"
       style="fill:#4d4d4d;fill-opacity:1;stroke-width:0;stroke-miterlimit:4"
       inkscape:export-filename="/Users/luca/Desktop/sheep.png"
       inkscape:export-xdpi="90"
       inkscape:export-ydpi="90" />
    <path
       style="fill:#ffff00;fill-opacity:1;stroke-width:1;stroke-miterlimit:4;stroke:none;stroke-opacity:1;stroke-dasharray:none"
       d="m 125.20567,156.01417 c 0,-6.05946 24.50339,-6.26474 19.86516,-3.09872 -5.89502,4.02388 -3.98136,-18.84454 2.07811,-18.84454 6.05946,0 8.61165,21.43749 4.79975,17.31361 -6.23522,-6.74553 17.14351,-1.42981 17.14351,4.62965 0,6.05947 -22.01791,7.12261 -16.293,1.90801 4.15168,-3.7816 0.4092,20.03526 -5.65026,20.03526 -6.05947,0 -6.38927,-22.98559 -2.41832,-19.01464 4.19399,4.19398 -19.52495,3.13084 -19.52495,-2.92863 z"
       id="path4782"
       inkscape:connector-curvature="0"
       sodipodi:nodetypes="sssssssss"
       inkscape:export-filename="/Users/luca/Desktop/sheep.png"
       inkscape:export-xdpi="90"
       inkscape:export-ydpi="90" />
    <path
       sodipodi:type="arc"
       style="fill:#000000;fill-opacity:1;stroke:none"
       id="path4785"
       sodipodi:cx="149.54091"
       sodipodi:cy="157.27284"
       sodipodi:rx="5.1125097"
       sodipodi:ry="3.8343821"
       d="m 154.65342,157.27284 a 5.1125097,3.8343821 0 1 1 -10.22502,0 5.1125097,3.8343821 0 1 1 10.22502,0 z"
       transform="translate(-1.2781274,0)"
       inkscape:export-filename="/Users/luca/Desktop/sheep.png"
       inkscape:export-xdpi="90"
       inkscape:export-ydpi="90" />
  </g>
</svg>
